<svg xmlns="http://www.w3.org/2000/svg" xmlns:xlink="http://www.w3.org/1999/xlink" width="1920" zoomAndPan="magnify" viewBox="0 0 1440 809.999993" height="1080" preserveAspectRatio="xMidYMid meet" version="1.0"><path fill="#00e18c" d="M 863.6875 96.730469 C 728.328125 40.144531 603.503906 94.515625 573.957031 107.382812 C 554.46875 115.859375 376.050781 205.113281 335.96875 407.042969 C 310.355469 536.445312 364.367188 683.046875 478.21875 749.636719 C 524.121094 776.480469 576.742188 789.730469 629.308594 797.671875 C 698.417969 808.09375 769.574219 809.71875 837.769531 794.445312 C 878.308594 785.375 958.433594 762.808594 1018.558594 694.691406 C 1129.371094 569.148438 1081.542969 385.414062 1072 352.347656 C 1061.996094 317.199219 1017.488281 161.109375 863.6875 96.730469 Z M 863.6875 96.730469 " fill-opacity="1" fill-rule="nonzero"/><path fill="#000000" d="M 1040.964844 241.617188 C 1041.554688 243.351562 1041.421875 242.742188 1040.964844 241.617188 Z M 1040.964844 241.617188 " fill-opacity="1" fill-rule="nonzero"/><path fill="#000000" d="M 1074.785156 365.921875 C 1074.785156 365.921875 1074.785156 365.75 1074.785156 365.671875 L 1074.785156 366.015625 C 1074.773438 365.984375 1074.773438 365.953125 1074.785156 365.921875 Z M 1074.785156 365.921875 " fill-opacity="1" fill-rule="nonzero"/><path fill="#000000" d="M 1095.761719 352.15625 C 1092.679688 331.84375 1088.332031 311.800781 1082.726562 292.035156 C 1077.273438 272.75 1070.695312 253.855469 1062.988281 235.355469 C 1050.257812 204.464844 1034.160156 175.4375 1014.703125 148.277344 C 1002.605469 131.4375 989.15625 115.757812 974.347656 101.242188 C 959.542969 86.726562 943.601562 73.589844 926.523438 61.832031 C 907.671875 49.136719 887.742188 38.445312 866.742188 29.757812 C 853.90625 24.503906 840.796875 20.042969 827.421875 16.371094 C 814.042969 12.699219 800.496094 9.84375 786.773438 7.804688 C 773.054688 5.765625 759.261719 4.5625 745.394531 4.1875 C 731.527344 3.8125 717.6875 4.273438 703.878906 5.570312 C 684.527344 7.335938 665.390625 10.441406 646.472656 14.886719 C 627.554688 19.332031 609.039062 25.070312 590.925781 32.105469 C 576.921875 37.371094 563.339844 43.554688 550.175781 50.664062 C 530.316406 61.675781 511.398438 74.109375 493.410156 87.96875 C 466.445312 108.398438 441.867188 131.382812 419.679688 156.925781 C 406.410156 172.1875 394.28125 188.304688 383.296875 205.289062 C 372.308594 222.269531 362.578125 239.941406 354.101562 258.300781 C 334.898438 300.4375 322.339844 345.742188 319.09375 391.941406 C 317.554688 414.664062 318.175781 437.324219 320.953125 459.929688 C 323.726562 482.535156 328.613281 504.671875 335.605469 526.34375 C 339.046875 537.199219 343.03125 547.851562 347.554688 558.300781 C 352.078125 568.753906 357.117188 578.949219 362.671875 588.890625 C 368.226562 598.828125 374.269531 608.464844 380.800781 617.789062 C 387.332031 627.117188 394.320312 636.089844 401.757812 644.710938 C 434.378906 682.109375 475.8125 709.238281 522.003906 726.804688 C 548.476562 736.605469 575.617188 743.9375 603.425781 748.796875 C 633.070312 754.285156 662.933594 757.976562 693.019531 759.871094 C 747.472656 763.210938 802.460938 759.429688 855.40625 745.875 C 894.648438 735.816406 932.933594 720.3125 966.851562 698.035156 C 1008.746094 670.503906 1043.769531 632.949219 1066.484375 588.125 C 1086.503906 548.625 1097.019531 505.269531 1100.53125 461.261719 C 1103.15625 424.707031 1101.566406 388.339844 1095.761719 352.15625 Z M 1077.707031 460.84375 C 1077.324219 465.730469 1076.847656 470.617188 1076.273438 475.503906 L 1075.816406 479.324219 C 1075.816406 479.800781 1075.683594 480.277344 1075.625 480.753906 C 1075.625 480.867188 1075.625 480.925781 1075.625 481.058594 C 1075.261719 483.617188 1074.882812 486.195312 1074.460938 488.695312 C 1072.792969 498.953125 1070.675781 509.136719 1068.105469 519.242188 C 1065.453125 529.589844 1062.269531 539.773438 1058.5625 549.789062 C 1057.722656 552.0625 1056.863281 554.292969 1055.964844 556.527344 C 1055.527344 557.636719 1055.070312 558.722656 1054.609375 559.832031 C 1054.609375 559.832031 1053.484375 562.484375 1053.292969 562.90625 C 1051.097656 567.867188 1048.769531 572.792969 1046.308594 577.625 C 1041.148438 587.71875 1035.378906 597.449219 1028.996094 606.816406 C 1027.449219 609.085938 1025.847656 611.339844 1024.226562 613.574219 C 1023.347656 614.777344 1022.46875 615.960938 1021.574219 617.144531 L 1020.542969 618.5 L 1019.605469 619.703125 C 1015.878906 624.398438 1011.996094 628.96875 1007.964844 633.410156 C 991.636719 651.515625 973.1875 667.105469 952.613281 680.183594 C 943.148438 686.230469 933.394531 691.773438 923.355469 696.8125 C 918.695312 699.160156 913.980469 701.375 909.230469 703.511719 L 905.621094 705.078125 L 904.152344 705.726562 C 901.730469 706.71875 899.324219 707.636719 896.878906 708.667969 C 877.9375 715.992188 858.574219 721.949219 838.792969 726.546875 C 819.011719 731.140625 799.003906 734.328125 778.773438 736.101562 C 721.054688 741.332031 662.5 736.847656 606.269531 726.210938 C 554.222656 716.34375 504.328125 700.265625 461.386719 668.9375 L 458.484375 666.78125 L 456.824219 665.539062 C 454.667969 663.839844 452.507812 662.121094 450.390625 660.367188 C 446.304688 656.941406 442.316406 653.421875 438.425781 649.808594 C 430.386719 642.296875 422.808594 634.351562 415.691406 625.964844 C 414.144531 624.148438 412.601562 622.296875 411.09375 620.425781 L 408.496094 617.066406 L 407.636719 615.960938 L 406.816406 614.890625 C 403.609375 610.652344 400.5 606.300781 397.503906 601.890625 C 391.390625 592.882812 385.761719 583.585938 380.609375 573.996094 C 378.066406 569.289062 375.640625 564.503906 373.339844 559.640625 C 372.128906 557.09375 370.964844 554.550781 369.847656 552.003906 C 369.351562 550.894531 368.855469 549.789062 368.375 548.664062 C 368.089844 548.03125 367.824219 547.402344 367.554688 546.753906 L 367.554688 546.582031 C 367.554688 546.46875 367.554688 546.332031 367.363281 546.125 C 363.242188 535.96875 359.480469 525.65625 356.277344 515.175781 C 353.070312 504.695312 350.339844 493.984375 348.125 483.199219 C 347.019531 477.890625 346.066406 472.566406 345.207031 467.199219 C 345.015625 465.996094 344.84375 464.792969 344.652344 463.574219 C 344.652344 463.230469 344.347656 461.414062 344.269531 460.84375 C 343.925781 458.265625 343.621094 455.667969 343.335938 453.089844 C 340.957031 431.136719 340.683594 409.15625 342.515625 387.148438 C 342.722656 384.554688 342.992188 381.9375 343.257812 379.339844 C 343.410156 377.949219 343.5625 376.574219 343.734375 375.179688 C 343.734375 374.550781 344.15625 372.066406 344.175781 371.859375 C 344.917969 366.742188 345.722656 361.644531 346.695312 356.585938 C 348.832031 345.28125 351.472656 334.09375 354.617188 323.023438 C 357.65625 312.34375 361.125 301.816406 365.015625 291.445312 C 365.914062 289.019531 366.925781 286.632812 367.804688 284.226562 L 369.351562 280.410156 L 369.921875 278.996094 L 370.054688 278.691406 C 370.054688 278.691406 370.054688 278.539062 370.054688 278.441406 C 372.179688 273.519531 374.382812 268.636719 376.660156 263.800781 C 385.277344 245.726562 395.171875 228.378906 406.339844 211.757812 C 409.0625 207.695312 411.863281 203.6875 414.738281 199.730469 C 416.054688 197.820312 417.390625 196.082031 418.746094 194.269531 C 419.355469 193.429688 419.988281 192.589844 420.65625 191.769531 L 422.164062 189.859375 C 427.679688 182.796875 433.386719 175.867188 439.339844 169.144531 C 450.609375 156.410156 462.53125 144.320312 475.109375 132.871094 C 480.832031 127.640625 486.75 122.523438 492.742188 117.597656 C 495.550781 115.289062 498.375 112.996094 501.21875 110.765625 L 503.128906 109.273438 L 503.566406 108.910156 C 504.882812 107.785156 506.332031 106.792969 507.726562 105.742188 C 517.703125 98.222656 527.972656 91.082031 538.53125 84.320312 C 551.121094 76.035156 564.207031 68.636719 577.792969 62.117188 C 580.253906 60.972656 582.773438 59.921875 585.273438 58.855469 L 586.078125 58.511719 L 586.324219 58.394531 L 590.140625 56.851562 C 592.902344 55.71875 595.683594 54.617188 598.484375 53.546875 C 613.757812 47.691406 629.320312 42.734375 645.167969 38.675781 C 655.066406 36.128906 665.050781 33.976562 675.113281 32.222656 C 677.671875 31.761719 680.230469 31.34375 682.75 30.941406 L 686.394531 30.390625 L 688.515625 30.101562 L 689.066406 30.101562 C 694.71875 29.378906 700.371094 28.742188 706.035156 28.195312 C 718.433594 27.136719 730.851562 26.730469 743.292969 26.972656 C 749.652344 27.097656 755.984375 27.40625 762.28125 27.886719 C 765.414062 28.136719 768.542969 28.402344 771.65625 28.726562 C 773.351562 28.917969 775.03125 29.089844 776.710938 29.300781 L 778.621094 29.53125 L 780.261719 29.757812 C 807.921875 33.644531 834.640625 40.957031 860.425781 51.695312 L 860.921875 51.90625 L 862.964844 52.800781 L 866.496094 54.367188 C 869.320312 55.640625 872.125 56.957031 874.914062 58.320312 C 879.886719 60.761719 884.8125 63.308594 889.683594 65.957031 C 899.21875 71.207031 908.457031 76.933594 917.398438 83.136719 C 919.460938 84.570312 921.519531 86.039062 923.5625 87.53125 L 926.371094 89.609375 L 927.972656 90.8125 L 929.269531 91.804688 C 933.085938 94.796875 936.859375 97.878906 940.589844 101.046875 C 948.222656 107.539062 955.515625 114.410156 962.519531 121.53125 C 969.121094 128.289062 975.484375 135.289062 981.605469 142.53125 C 983.113281 144.34375 984.621094 146.199219 986.109375 148.050781 L 988.019531 150.472656 L 989.105469 151.867188 C 991.816406 155.4375 994.488281 159.027344 997.085938 162.671875 C 1006.988281 176.664062 1015.972656 191.226562 1024.035156 206.355469 C 1027.660156 213.136719 1031.117188 220.011719 1034.398438 226.972656 C 1035.914062 230.179688 1037.382812 233.40625 1038.808594 236.652344 C 1039.476562 238.160156 1040.144531 239.6875 1040.714844 241.195312 L 1040.886719 241.617188 L 1040.886719 241.445312 C 1041.191406 242.359375 1041.632812 243.21875 1041.996094 244.097656 C 1046.398438 254.777344 1050.410156 265.59375 1054.039062 276.554688 C 1058.828125 291.140625 1063.046875 305.933594 1066.5 320.882812 C 1069.351562 333.230469 1071.730469 345.683594 1073.640625 358.246094 C 1073.90625 360 1074.175781 361.757812 1074.421875 363.515625 C 1074.539062 364.238281 1074.632812 364.945312 1074.726562 365.671875 C 1074.71875 365.507812 1074.71875 365.339844 1074.726562 365.175781 C 1074.726562 365.421875 1074.726562 365.671875 1074.726562 365.921875 L 1074.726562 366.035156 C 1074.898438 367.292969 1074.726562 366.683594 1074.726562 366.035156 L 1074.84375 367.027344 C 1075.351562 370.949219 1075.816406 374.867188 1076.234375 378.789062 C 1077.140625 387.300781 1077.8125 395.84375 1078.257812 404.410156 C 1079.296875 423.230469 1079.109375 442.042969 1077.707031 460.84375 Z M 1077.707031 460.84375 " fill-opacity="1" fill-rule="nonzero"/><path fill="#000000" d="M 569.871094 331.574219 C 598.636719 331.574219 621.960938 302.785156 621.960938 267.273438 C 621.960938 231.765625 598.636719 202.992188 569.871094 202.992188 C 541.109375 202.992188 517.785156 231.746094 517.785156 267.273438 C 517.785156 302.804688 541.109375 331.574219 569.871094 331.574219 Z M 569.871094 331.574219 " fill-opacity="1" fill-rule="nonzero"/><path fill="#000000" d="M 850.253906 331.574219 C 879.015625 331.574219 902.339844 302.785156 902.339844 267.273438 C 902.339844 231.765625 879.015625 202.992188 850.253906 202.992188 C 821.488281 202.992188 798.164062 231.746094 798.164062 267.273438 C 798.164062 302.804688 821.488281 331.574219 850.253906 331.574219 Z M 850.253906 331.574219 " fill-opacity="1" fill-rule="nonzero"/><path fill="#000000" d="M 641.046875 570.921875 C 638.71875 569.890625 640.28125 570.617188 641.046875 570.921875 Z M 641.046875 570.921875 " fill-opacity="1" fill-rule="nonzero"/><path fill="#000000" d="M 553.554688 503.683594 C 552.464844 502.230469 553.09375 503.089844 553.554688 503.683594 Z M 553.554688 503.683594 " fill-opacity="1" fill-rule="nonzero"/><path fill="#000000" d="M 830.15625 541.390625 C 827.519531 543.296875 829.351562 542 830.15625 541.390625 Z M 830.15625 541.390625 " fill-opacity="1" fill-rule="nonzero"/><path fill="#000000" d="M 922.894531 440.070312 C 922.230469 439.734375 921.542969 439.453125 920.835938 439.230469 C 918.609375 438.480469 916.359375 438.378906 914.078125 438.925781 C 891.171875 444.144531 868.148438 448.496094 845.003906 451.984375 L 835.859375 453.320312 C 834.351562 453.53125 832.828125 453.816406 831.320312 453.949219 L 831.128906 453.949219 L 827.976562 454.351562 C 821.566406 455.191406 815.152344 455.9375 808.71875 456.621094 C 794.648438 458.148438 780.542969 459.347656 766.40625 460.210938 C 708.207031 463.808594 650.175781 461.984375 592.316406 454.734375 L 586.839844 454.027344 C 586.078125 453.929688 585.273438 453.855469 584.511719 453.722656 C 588.003906 454.371094 584.511719 453.722656 583.710938 453.605469 C 580.179688 453.109375 576.628906 452.613281 573.097656 452.078125 C 566.265625 451.0625 559.445312 449.964844 552.636719 448.796875 C 540.003906 446.605469 527.410156 444.164062 514.863281 441.464844 C 513.890625 441.214844 512.898438 441.089844 511.886719 441.09375 C 510.878906 441.097656 509.890625 441.230469 508.914062 441.488281 C 507.941406 441.746094 507.015625 442.125 506.136719 442.625 C 505.261719 443.121094 504.460938 443.71875 503.738281 444.421875 C 503.011719 445.132812 502.394531 445.925781 501.882812 446.804688 C 501.371094 447.679688 500.984375 448.609375 500.722656 449.589844 C 500.464844 450.570312 500.335938 451.570312 500.347656 452.585938 C 500.355469 453.601562 500.5 454.597656 500.78125 455.574219 C 502.257812 459.476562 503.839844 463.339844 505.519531 467.164062 C 507.203125 470.984375 508.980469 474.761719 510.859375 478.492188 C 512.738281 482.222656 514.710938 485.898438 516.78125 489.523438 C 518.851562 493.152344 521.015625 496.722656 523.269531 500.234375 C 525.527344 503.75 527.871094 507.203125 530.308594 510.59375 C 532.742188 513.984375 535.265625 517.3125 537.875 520.570312 C 540.484375 523.832031 543.175781 527.019531 545.949219 530.140625 C 548.726562 533.261719 551.582031 536.304688 554.515625 539.277344 C 557.449219 542.246094 560.457031 545.140625 563.542969 547.953125 C 566.628906 550.765625 569.78125 553.5 573.011719 556.148438 C 576.238281 558.796875 579.53125 561.359375 582.890625 563.839844 C 586.253906 566.316406 589.675781 568.703125 593.160156 571.003906 C 596.644531 573.300781 600.1875 575.507812 603.789062 577.625 C 607.386719 579.738281 611.039062 581.757812 614.746094 583.679688 C 618.453125 585.605469 622.203125 587.429688 626.003906 589.160156 C 629.804688 590.886719 633.648438 592.515625 637.535156 594.042969 C 642.667969 596.054688 647.878906 597.851562 653.160156 599.433594 C 658.445312 601.019531 663.785156 602.382812 669.179688 603.523438 C 674.574219 604.667969 680.007812 605.585938 685.480469 606.28125 C 690.953125 606.976562 696.441406 607.445312 701.953125 607.691406 C 707.460938 607.933594 712.972656 607.949219 718.484375 607.738281 C 723.996094 607.527344 729.488281 607.089844 734.964844 606.425781 C 740.4375 605.761719 745.878906 604.875 751.28125 603.765625 C 756.683594 602.652344 762.027344 601.320312 767.320312 599.769531 C 798.738281 590.433594 826.71875 573.613281 851.949219 553.015625 C 859.371094 547.007812 866.449219 540.621094 873.183594 533.847656 C 879.914062 527.078125 886.265625 519.964844 892.234375 512.511719 C 898.199219 505.058594 903.75 497.304688 908.878906 489.25 C 914.011719 481.199219 918.695312 472.894531 922.933594 464.335938 C 924.347656 461.472656 925.683594 458.609375 926.980469 455.6875 C 926.980469 455.574219 927.074219 455.4375 927.132812 455.324219 C 927.859375 454.039062 928.3125 452.664062 928.484375 451.195312 C 928.65625 449.730469 928.535156 448.285156 928.125 446.867188 C 927.714844 445.445312 927.058594 444.144531 926.15625 442.972656 C 925.253906 441.800781 924.164062 440.832031 922.894531 440.070312 Z M 884.722656 484.515625 C 883.40625 486.425781 882.070312 488.332031 880.714844 490.242188 L 878.597656 493.125 L 877.507812 494.578125 L 876.839844 495.453125 L 877.277344 494.882812 C 877.03125 495.816406 875.582031 497.058594 874.96875 497.804688 C 874.359375 498.546875 873.386719 499.710938 872.566406 500.742188 C 870.828125 502.84375 869.070312 504.925781 867.257812 506.96875 C 859.5625 515.6875 851.292969 523.820312 842.445312 531.367188 C 838.4375 534.765625 834.371094 538.105469 830.230469 541.332031 L 830.667969 540.988281 L 828.988281 542.285156 L 825.019531 545.226562 C 822.324219 547.1875 819.59375 549.09375 816.832031 550.953125 C 810.453125 555.257812 803.875 559.230469 797.097656 562.867188 C 793.367188 564.851562 789.601562 566.761719 785.796875 568.59375 L 780.339844 571.019531 L 779.039062 571.535156 C 777.914062 571.992188 776.769531 572.449219 775.644531 572.871094 C 766.449219 576.402344 757.039062 579.207031 747.414062 581.289062 C 745.105469 581.785156 742.796875 582.246094 740.46875 582.664062 L 736.746094 583.273438 L 734.835938 583.5625 L 733.308594 583.773438 L 734.835938 583.5625 C 734.644531 584.132812 727.90625 584.324219 727.070312 584.402344 C 724.148438 584.648438 721.226562 584.839844 718.308594 584.957031 C 712.582031 585.183594 706.683594 585.144531 700.902344 584.820312 C 698.191406 584.6875 695.480469 584.476562 692.789062 584.210938 C 691.585938 584.097656 690.402344 583.980469 689.199219 583.828125 L 687.292969 583.601562 L 687.160156 583.601562 C 676.917969 582.074219 666.851562 579.777344 656.964844 576.707031 C 652.675781 575.359375 648.425781 573.863281 644.214844 572.222656 L 641.199219 571 L 641.066406 571 L 641.582031 571.230469 L 640.414062 570.730469 C 638.335938 569.835938 636.273438 568.824219 634.210938 567.945312 C 627.292969 564.675781 620.558594 561.058594 614.019531 557.082031 C 608.921875 553.988281 603.941406 550.6875 599.09375 547.230469 C 597.300781 545.953125 595.523438 544.632812 593.769531 543.414062 L 591.957031 542.058594 L 591.648438 541.808594 L 590.21875 540.703125 C 587.929688 538.894531 585.675781 537.03125 583.460938 535.109375 C 575.269531 528.0625 567.632812 520.460938 560.558594 512.292969 C 558.972656 510.480469 557.429688 508.628906 555.902344 506.757812 L 553.707031 504.007812 L 553.574219 503.835938 L 553.992188 504.390625 L 552.734375 502.746094 C 549.945312 499.0625 547.273438 495.28125 544.714844 491.445312 C 540.316406 484.769531 536.265625 477.890625 532.558594 470.808594 C 532.101562 469.910156 531.679688 468.898438 531.222656 468.097656 C 547.121094 471.09375 563.078125 473.824219 579.128906 475.925781 C 607.394531 479.742188 635.777344 482.511719 664.273438 483.867188 C 694.90625 485.316406 725.617188 485.277344 756.234375 483.714844 C 784.863281 482.261719 813.226562 479.4375 841.511719 475.464844 C 859.820312 472.921875 878.03125 469.816406 896.136719 466.148438 C 892.613281 472.4375 888.824219 478.558594 884.78125 484.515625 Z M 884.722656 484.515625 " fill-opacity="1" fill-rule="nonzero"/></svg>