<svg xmlns="http://www.w3.org/2000/svg" xmlns:xlink="http://www.w3.org/1999/xlink" width="1920" zoomAndPan="magnify" viewBox="0 0 1440 809.999993" height="1080" preserveAspectRatio="xMidYMid meet" version="1.0"><path fill="#ff934a" d="M 863.6875 96.730469 C 728.328125 40.144531 603.503906 94.515625 573.957031 107.382812 C 554.46875 115.859375 376.050781 205.113281 335.96875 407.042969 C 310.355469 536.445312 364.367188 683.046875 478.21875 749.636719 C 524.121094 776.480469 576.742188 789.730469 629.308594 797.671875 C 698.417969 808.09375 769.574219 809.71875 837.769531 794.445312 C 878.308594 785.375 958.433594 762.808594 1018.558594 694.691406 C 1129.371094 569.148438 1081.542969 385.414062 1072 352.347656 C 1061.996094 317.199219 1017.488281 161.109375 863.6875 96.730469 Z M 863.6875 96.730469 " fill-opacity="1" fill-rule="nonzero"/><path fill="#000000" d="M 1095.761719 352.15625 C 1092.679688 331.84375 1088.332031 311.800781 1082.726562 292.035156 C 1077.273438 272.75 1070.695312 253.855469 1062.988281 235.355469 C 1050.257812 204.464844 1034.160156 175.4375 1014.703125 148.277344 C 1002.605469 131.4375 989.15625 115.757812 974.347656 101.242188 C 959.542969 86.726562 943.601562 73.589844 926.523438 61.832031 C 907.671875 49.136719 887.742188 38.445312 866.742188 29.757812 C 853.90625 24.503906 840.796875 20.042969 827.421875 16.367188 C 814.042969 12.695312 800.496094 9.839844 786.773438 7.804688 C 773.054688 5.765625 759.261719 4.558594 745.394531 4.1875 C 731.527344 3.8125 717.6875 4.273438 703.878906 5.570312 C 684.527344 7.335938 665.390625 10.441406 646.472656 14.886719 C 627.554688 19.332031 609.039062 25.070312 590.925781 32.105469 C 576.921875 37.371094 563.339844 43.554688 550.175781 50.664062 C 530.316406 61.675781 511.398438 74.109375 493.410156 87.96875 C 466.445312 108.398438 441.867188 131.382812 419.679688 156.925781 C 406.410156 172.1875 394.28125 188.304688 383.296875 205.289062 C 372.308594 222.269531 362.578125 239.941406 354.101562 258.300781 C 334.898438 300.4375 322.339844 345.742188 319.09375 391.941406 C 317.554688 414.664062 318.175781 437.324219 320.953125 459.929688 C 323.726562 482.535156 328.613281 504.671875 335.605469 526.34375 C 339.046875 537.199219 343.03125 547.851562 347.554688 558.300781 C 352.078125 568.753906 357.117188 578.949219 362.671875 588.890625 C 368.226562 598.828125 374.269531 608.464844 380.800781 617.789062 C 387.332031 627.117188 394.320312 636.089844 401.757812 644.710938 C 434.378906 682.109375 475.8125 709.238281 522.003906 726.804688 C 548.476562 736.605469 575.617188 743.9375 603.425781 748.796875 C 633.070312 754.285156 662.933594 757.976562 693.019531 759.871094 C 747.472656 763.210938 802.460938 759.429688 855.40625 745.875 C 894.648438 735.816406 932.933594 720.3125 966.851562 698.035156 C 1008.746094 670.503906 1043.769531 632.949219 1066.484375 588.125 C 1086.503906 548.625 1097.019531 505.269531 1100.53125 461.261719 C 1103.15625 424.707031 1101.566406 388.339844 1095.761719 352.15625 Z M 1077.707031 460.84375 C 1077.324219 465.730469 1076.847656 470.617188 1076.273438 475.503906 L 1075.816406 479.324219 C 1075.816406 479.800781 1075.683594 480.277344 1075.625 480.753906 C 1075.625 480.851562 1075.625 480.925781 1075.625 481.058594 C 1075.261719 483.617188 1074.882812 486.195312 1074.460938 488.695312 C 1072.792969 498.953125 1070.675781 509.136719 1068.105469 519.242188 C 1065.453125 529.589844 1062.269531 539.773438 1058.5625 549.789062 C 1057.722656 552.0625 1056.863281 554.292969 1055.964844 556.527344 C 1055.527344 557.636719 1055.070312 558.742188 1054.609375 559.832031 C 1054.609375 559.832031 1053.484375 562.484375 1053.292969 562.90625 C 1051.097656 567.867188 1048.769531 572.792969 1046.308594 577.625 C 1041.148438 587.71875 1035.378906 597.449219 1028.996094 606.816406 C 1027.449219 609.085938 1025.847656 611.339844 1024.226562 613.574219 C 1023.347656 614.777344 1022.46875 615.960938 1021.574219 617.144531 L 1020.542969 618.5 L 1019.605469 619.703125 C 1015.878906 624.398438 1011.996094 628.96875 1007.964844 633.410156 C 991.636719 651.515625 973.1875 667.105469 952.613281 680.183594 C 943.148438 686.230469 933.394531 691.773438 923.355469 696.8125 C 918.695312 699.160156 913.980469 701.375 909.230469 703.511719 L 905.621094 705.078125 L 904.152344 705.726562 C 901.730469 706.71875 899.324219 707.636719 896.878906 708.667969 C 877.9375 715.992188 858.574219 721.949219 838.792969 726.546875 C 819.011719 731.140625 799.003906 734.328125 778.773438 736.101562 C 721.054688 741.332031 662.5 736.847656 606.269531 726.210938 C 554.222656 716.34375 504.328125 700.265625 461.386719 668.9375 L 458.484375 666.78125 L 456.824219 665.539062 C 454.667969 663.839844 452.507812 662.121094 450.390625 660.367188 C 446.304688 656.941406 442.316406 653.421875 438.425781 649.808594 C 430.386719 642.296875 422.808594 634.351562 415.691406 625.964844 C 414.144531 624.148438 412.601562 622.296875 411.09375 620.425781 L 408.496094 617.066406 L 407.636719 615.960938 L 406.816406 614.890625 C 403.609375 610.652344 400.5 606.300781 397.503906 601.890625 C 391.390625 592.882812 385.761719 583.585938 380.609375 573.996094 C 378.066406 569.289062 375.640625 564.503906 373.339844 559.640625 C 372.128906 557.09375 370.964844 554.550781 369.847656 552.003906 C 369.351562 550.894531 368.855469 549.789062 368.375 548.664062 C 368.089844 548.03125 367.824219 547.402344 367.554688 546.753906 L 367.554688 546.582031 L 367.363281 546.125 C 363.242188 535.96875 359.480469 525.65625 356.277344 515.175781 C 353.070312 504.695312 350.339844 493.984375 348.125 483.199219 C 347.019531 477.890625 346.066406 472.566406 345.207031 467.199219 C 345.015625 465.996094 344.84375 464.792969 344.652344 463.574219 C 344.652344 463.230469 344.347656 461.414062 344.269531 460.84375 C 343.925781 458.265625 343.621094 455.667969 343.335938 453.089844 C 340.957031 431.136719 340.683594 409.15625 342.515625 387.148438 C 342.722656 384.554688 342.992188 381.9375 343.257812 379.339844 C 343.410156 377.949219 343.5625 376.574219 343.734375 375.179688 C 343.734375 374.550781 344.15625 372.066406 344.175781 371.859375 C 344.917969 366.742188 345.722656 361.644531 346.695312 356.585938 C 348.832031 345.28125 351.472656 334.09375 354.617188 323.023438 C 357.65625 312.34375 361.125 301.816406 365.015625 291.445312 C 365.933594 289.019531 366.925781 286.632812 367.804688 284.226562 L 369.351562 280.410156 L 369.921875 278.996094 L 370.054688 278.691406 L 370.054688 278.441406 C 372.179688 273.519531 374.382812 268.636719 376.660156 263.800781 C 385.269531 245.71875 395.164062 228.371094 406.339844 211.757812 C 409.070312 207.691406 411.875 203.679688 414.71875 199.730469 C 416.054688 197.820312 417.390625 196.082031 418.746094 194.269531 C 419.355469 193.429688 419.988281 192.589844 420.65625 191.769531 L 422.164062 189.859375 C 427.679688 182.796875 433.386719 175.867188 439.339844 169.144531 C 450.609375 156.410156 462.53125 144.320312 475.109375 132.871094 C 480.871094 127.640625 486.75 122.550781 492.742188 117.597656 C 495.550781 115.289062 498.375 112.996094 501.21875 110.765625 L 503.128906 109.273438 L 503.566406 108.910156 C 504.882812 107.785156 506.332031 106.792969 507.726562 105.742188 C 517.703125 98.222656 527.972656 91.082031 538.53125 84.320312 C 551.121094 76.035156 564.207031 68.636719 577.792969 62.117188 C 580.253906 60.972656 582.773438 59.921875 585.273438 58.855469 L 586.078125 58.511719 L 586.324219 58.394531 L 590.140625 56.851562 C 592.902344 55.71875 595.683594 54.617188 598.484375 53.546875 C 613.757812 47.691406 629.320312 42.734375 645.167969 38.675781 C 655.066406 36.128906 665.050781 33.976562 675.113281 32.222656 C 677.671875 31.761719 680.230469 31.34375 682.75 30.941406 L 686.394531 30.390625 L 688.515625 30.101562 L 689.066406 30.101562 C 694.71875 29.378906 700.371094 28.742188 706.035156 28.195312 C 718.433594 27.136719 730.851562 26.730469 743.292969 26.972656 C 749.652344 27.097656 755.984375 27.40625 762.28125 27.886719 C 765.414062 28.136719 768.542969 28.402344 771.65625 28.726562 C 773.351562 28.917969 775.03125 29.089844 776.710938 29.300781 L 778.621094 29.53125 L 780.242188 29.757812 C 807.902344 33.644531 834.621094 40.957031 860.40625 51.695312 L 860.902344 51.90625 L 862.945312 52.800781 L 866.476562 54.367188 C 869.300781 55.640625 872.105469 56.957031 874.894531 58.320312 C 879.867188 60.761719 884.792969 63.308594 889.664062 65.957031 C 899.199219 71.207031 908.4375 76.933594 917.378906 83.136719 C 919.441406 84.570312 921.503906 86.039062 923.542969 87.53125 L 926.351562 89.609375 L 927.953125 90.8125 L 929.25 91.804688 C 933.070312 94.796875 936.847656 97.878906 940.589844 101.046875 C 948.222656 107.539062 955.496094 114.410156 962.5 121.53125 C 969.105469 128.289062 975.464844 135.289062 981.585938 142.53125 C 983.09375 144.34375 984.601562 146.199219 986.089844 148.050781 L 988 150.472656 L 989.085938 151.867188 C 991.796875 155.4375 994.46875 159.027344 997.066406 162.671875 C 1006.976562 176.664062 1015.964844 191.226562 1024.035156 206.355469 C 1027.660156 213.136719 1031.117188 220.011719 1034.398438 226.972656 C 1035.914062 230.179688 1037.382812 233.40625 1038.808594 236.652344 C 1039.476562 238.160156 1040.144531 239.6875 1040.714844 241.195312 L 1040.886719 241.617188 L 1040.886719 241.445312 C 1041.191406 242.359375 1041.632812 243.21875 1041.996094 244.097656 C 1046.398438 254.777344 1050.410156 265.59375 1054.039062 276.554688 C 1058.828125 291.140625 1063.046875 305.933594 1066.5 320.882812 C 1069.351562 333.230469 1071.730469 345.683594 1073.640625 358.246094 C 1073.90625 360 1074.175781 361.757812 1074.421875 363.515625 C 1074.539062 364.238281 1074.632812 364.945312 1074.726562 365.671875 C 1074.71875 365.507812 1074.71875 365.339844 1074.726562 365.175781 C 1074.726562 365.421875 1074.726562 365.671875 1074.726562 365.921875 C 1074.71875 365.957031 1074.71875 365.996094 1074.726562 366.035156 C 1074.898438 367.292969 1074.726562 366.683594 1074.726562 366.035156 L 1074.84375 367.027344 C 1075.351562 370.949219 1075.816406 374.867188 1076.234375 378.789062 C 1077.140625 387.300781 1077.8125 395.84375 1078.257812 404.410156 C 1079.296875 423.230469 1079.109375 442.042969 1077.707031 460.84375 Z M 1077.707031 460.84375 " fill-opacity="1" fill-rule="nonzero"/><path fill="#000000" d="M 1040.964844 241.617188 C 1041.554688 243.351562 1041.421875 242.742188 1040.964844 241.617188 Z M 1040.964844 241.617188 " fill-opacity="1" fill-rule="nonzero"/><path fill="#000000" d="M 569.871094 331.574219 C 598.636719 331.574219 621.960938 302.785156 621.960938 267.273438 C 621.960938 231.765625 598.636719 202.992188 569.871094 202.992188 C 541.109375 202.992188 517.785156 231.746094 517.785156 267.273438 C 517.785156 302.804688 541.109375 331.574219 569.871094 331.574219 Z M 569.871094 331.574219 " fill-opacity="1" fill-rule="nonzero"/><path fill="#000000" d="M 902.339844 267.273438 C 902.339844 269.378906 902.253906 271.480469 902.089844 273.578125 C 901.921875 275.671875 901.671875 277.753906 901.339844 279.820312 C 901.003906 281.882812 900.589844 283.925781 900.097656 285.941406 C 899.601562 287.957031 899.027344 289.9375 898.375 291.882812 C 897.722656 293.828125 896.992188 295.726562 896.1875 297.585938 C 895.382812 299.441406 894.507812 301.246094 893.5625 302.996094 C 892.613281 304.75 891.597656 306.4375 890.515625 308.066406 C 889.433594 309.695312 888.289062 311.253906 887.082031 312.742188 C 885.878906 314.230469 884.613281 315.644531 883.296875 316.980469 C 881.976562 318.316406 880.609375 319.566406 879.191406 320.738281 C 877.773438 321.90625 876.308594 322.988281 874.804688 323.980469 C 873.300781 324.976562 871.761719 325.875 870.183594 326.679688 C 868.609375 327.484375 867.003906 328.195312 865.371094 328.804688 C 863.738281 329.417969 862.085938 329.929688 860.414062 330.339844 C 858.742188 330.75 857.054688 331.058594 855.359375 331.265625 C 853.660156 331.472656 851.957031 331.574219 850.253906 331.574219 C 848.546875 331.574219 846.84375 331.472656 845.148438 331.265625 C 843.449219 331.058594 841.765625 330.75 840.089844 330.339844 C 838.417969 329.929688 836.765625 329.417969 835.132812 328.804688 C 833.5 328.195312 831.894531 327.484375 830.320312 326.679688 C 828.742188 325.875 827.203125 324.976562 825.699219 323.980469 C 824.195312 322.988281 822.734375 321.90625 821.3125 320.738281 C 819.894531 319.566406 818.527344 318.316406 817.207031 316.980469 C 815.890625 315.644531 814.628906 314.230469 813.421875 312.742188 C 812.214844 311.253906 811.070312 309.695312 809.988281 308.066406 C 808.90625 306.4375 807.890625 304.75 806.945312 302.996094 C 805.996094 301.246094 805.121094 299.441406 804.316406 297.585938 C 803.511719 295.726562 802.78125 293.828125 802.128906 291.882812 C 801.476562 289.9375 800.902344 287.957031 800.410156 285.941406 C 799.914062 283.925781 799.5 281.882812 799.167969 279.820312 C 798.832031 277.753906 798.582031 275.671875 798.417969 273.578125 C 798.25 271.480469 798.164062 269.378906 798.164062 267.273438 C 798.164062 265.167969 798.25 263.066406 798.417969 260.972656 C 798.582031 258.875 798.832031 256.796875 799.167969 254.730469 C 799.5 252.664062 799.914062 250.625 800.410156 248.609375 C 800.902344 246.59375 801.476562 244.613281 802.128906 242.667969 C 802.78125 240.722656 803.511719 238.820312 804.316406 236.964844 C 805.121094 235.105469 805.996094 233.300781 806.945312 231.550781 C 807.890625 229.800781 808.90625 228.109375 809.988281 226.484375 C 811.070312 224.855469 812.214844 223.296875 813.421875 221.808594 C 814.628906 220.320312 815.890625 218.90625 817.207031 217.570312 C 818.527344 216.234375 819.894531 214.980469 821.3125 213.8125 C 822.734375 212.640625 824.195312 211.558594 825.699219 210.566406 C 827.203125 209.574219 828.742188 208.675781 830.320312 207.871094 C 831.894531 207.0625 833.5 206.355469 835.132812 205.742188 C 836.765625 205.132812 838.417969 204.621094 840.089844 204.210938 C 841.765625 203.800781 843.449219 203.492188 845.148438 203.285156 C 846.84375 203.078125 848.546875 202.976562 850.253906 202.976562 C 851.957031 202.976562 853.660156 203.078125 855.359375 203.285156 C 857.054688 203.492188 858.742188 203.800781 860.414062 204.210938 C 862.085938 204.621094 863.738281 205.132812 865.371094 205.742188 C 867.003906 206.355469 868.609375 207.0625 870.183594 207.871094 C 871.761719 208.675781 873.300781 209.574219 874.804688 210.566406 C 876.308594 211.558594 877.773438 212.640625 879.191406 213.8125 C 880.609375 214.980469 881.976562 216.234375 883.296875 217.570312 C 884.613281 218.90625 885.878906 220.320312 887.082031 221.808594 C 888.289062 223.296875 889.433594 224.855469 890.515625 226.484375 C 891.597656 228.109375 892.613281 229.800781 893.5625 231.550781 C 894.507812 233.300781 895.382812 235.105469 896.1875 236.964844 C 896.992188 238.820312 897.722656 240.722656 898.375 242.667969 C 899.027344 244.613281 899.601562 246.59375 900.097656 248.609375 C 900.589844 250.625 901.003906 252.664062 901.339844 254.730469 C 901.671875 256.796875 901.921875 258.875 902.089844 260.972656 C 902.253906 263.066406 902.339844 265.167969 902.339844 267.273438 Z M 902.339844 267.273438 " fill-opacity="1" fill-rule="nonzero"/><path fill="#000000" d="M 922.914062 512.734375 C 915.980469 508.4375 908.703125 504.84375 901.078125 501.945312 C 887.320312 496.582031 873.21875 492.390625 858.765625 489.363281 C 833.925781 484 808.84375 480.21875 783.527344 478.023438 C 744.660156 474.488281 705.761719 474.105469 666.832031 476.878906 C 639.550781 478.773438 612.5 482.375 585.675781 487.683594 C 559.984375 492.800781 533.96875 499.140625 510.476562 510.996094 C 508.988281 511.738281 507.496094 512.542969 506.046875 513.34375 C 505.40625 513.730469 504.804688 514.171875 504.246094 514.675781 C 503.691406 515.179688 503.1875 515.730469 502.738281 516.328125 C 502.289062 516.929688 501.902344 517.566406 501.574219 518.242188 C 501.25 518.917969 500.992188 519.617188 500.800781 520.34375 C 500.613281 521.070312 500.492188 521.804688 500.445312 522.554688 C 500.398438 523.304688 500.425781 524.050781 500.523438 524.792969 C 500.621094 525.535156 500.789062 526.261719 501.027344 526.972656 C 501.265625 527.683594 501.574219 528.367188 501.945312 529.015625 C 502.332031 529.65625 502.78125 530.25 503.285156 530.804688 C 503.789062 531.355469 504.339844 531.855469 504.941406 532.304688 C 505.542969 532.75 506.179688 533.136719 506.851562 533.460938 C 507.527344 533.785156 508.226562 534.042969 508.949219 534.230469 C 509.671875 534.421875 510.40625 534.542969 511.152344 534.589844 C 511.902344 534.640625 512.644531 534.617188 513.386719 534.523438 C 514.128906 534.433594 514.855469 534.269531 515.566406 534.035156 C 516.277344 533.804688 516.960938 533.503906 517.613281 533.140625 C 520.953125 531.230469 524.390625 529.550781 527.882812 527.988281 C 528.933594 527.507812 533.132812 525.792969 528.914062 527.488281 L 532.921875 525.867188 C 535.796875 524.746094 538.703125 523.679688 541.644531 522.660156 C 556.414062 517.734375 571.441406 513.773438 586.726562 510.785156 C 595.867188 508.875 605.046875 507.195312 614.265625 505.726562 C 617.4375 505.210938 620.585938 504.734375 623.8125 504.292969 L 628.46875 503.644531 L 627.914062 503.644531 L 628.429688 503.644531 L 631.523438 503.246094 C 639.15625 502.289062 646.789062 501.46875 654.425781 500.78125 C 693.210938 497.34375 732.019531 497.042969 770.851562 499.882812 C 778.78125 500.457031 786.699219 501.167969 794.617188 502.023438 C 798.164062 502.421875 801.734375 502.824219 805.285156 503.28125 C 806.886719 503.472656 808.492188 503.644531 810.074219 503.894531 L 808.664062 503.703125 L 809.730469 503.855469 L 812.078125 504.179688 C 820.886719 505.453125 829.65625 506.902344 838.398438 508.53125 C 854.753906 511.421875 870.800781 515.527344 886.535156 520.847656 C 889.324219 521.800781 892.089844 522.753906 894.820312 523.9375 L 896.023438 524.4375 L 899.019531 525.773438 C 902.226562 527.261719 905.375 528.863281 908.410156 530.640625 C 909.421875 531.230469 910.414062 531.863281 911.386719 532.550781 C 912.039062 532.921875 912.71875 533.230469 913.429688 533.472656 C 914.140625 533.710938 914.867188 533.882812 915.609375 533.980469 C 916.355469 534.082031 917.101562 534.109375 917.847656 534.0625 C 918.597656 534.015625 919.335938 533.898438 920.0625 533.707031 C 920.789062 533.515625 921.488281 533.257812 922.164062 532.929688 C 922.839844 532.605469 923.476562 532.214844 924.078125 531.765625 C 924.675781 531.3125 925.226562 530.808594 925.726562 530.25 C 926.230469 529.691406 926.671875 529.089844 927.054688 528.445312 C 927.421875 527.789062 927.71875 527.105469 927.953125 526.390625 C 928.1875 525.679688 928.351562 524.949219 928.445312 524.207031 C 928.539062 523.460938 928.558594 522.714844 928.511719 521.964844 C 928.460938 521.21875 928.339844 520.480469 928.148438 519.753906 C 927.957031 519.027344 927.699219 518.328125 927.375 517.652344 C 927.046875 516.976562 926.660156 516.335938 926.210938 515.734375 C 925.761719 515.132812 925.261719 514.582031 924.707031 514.074219 C 924.152344 513.570312 923.554688 513.121094 922.914062 512.734375 Z M 922.914062 512.734375 " fill-opacity="1" fill-rule="nonzero"/></svg>