<svg xmlns="http://www.w3.org/2000/svg" xmlns:xlink="http://www.w3.org/1999/xlink" width="75" zoomAndPan="magnify" viewBox="0 0 56.25 56.249997" height="75" preserveAspectRatio="xMidYMid meet" version="1.0"><defs><clipPath id="a783a00d1b"><path d="M 0 0 L 55.511719 0 L 55.511719 55.511719 L 0 55.511719 Z M 0 0 " clip-rule="nonzero"/></clipPath><clipPath id="dfe8ea6f10"><path d="M 0 14 L 55.511719 14 L 55.511719 55.511719 L 0 55.511719 Z M 0 14 " clip-rule="nonzero"/></clipPath><clipPath id="4529a892d5"><path d="M 18 1 L 55.511719 1 L 55.511719 41 L 18 41 Z M 18 1 " clip-rule="nonzero"/></clipPath></defs><path fill="#5998d2" d="M 50.414062 28.484375 C 50.414062 40.390625 41.097656 50.050781 28.863281 50.050781 C 16.632812 50.050781 6.753906 40.390625 6.753906 28.484375 C 6.753906 16.578125 16.6875 9.332031 28.863281 9.332031 C 41.042969 9.332031 50.414062 16.578125 50.414062 28.484375 Z M 50.414062 28.484375 " fill-opacity="1" fill-rule="nonzero"/><g clip-path="url(#a783a00d1b)"><path stroke-linecap="butt" transform="matrix(0.561139, 0, 0, 0.56164, -42.175517, -47.899425)" fill="none" stroke-linejoin="miter" d="M 165.698919 134.902394 C 165.698919 154.800864 148.602011 168.898801 127.397947 168.898801 C 106.200844 168.898801 84.098774 154.800864 84.098774 134.902394 C 84.098774 114.996969 106.200844 98.902925 127.397947 98.902925 C 148.602011 98.902925 165.698919 114.996969 165.698919 134.902394 Z M 165.698919 134.902394 " stroke="#000000" stroke-width="2" stroke-opacity="1" stroke-miterlimit="10"/></g><g clip-path="url(#dfe8ea6f10)"><path stroke-linecap="butt" transform="matrix(0.561139, 0, 0, 0.56164, -42.175517, -47.899425)" fill="none" stroke-linejoin="miter" d="M 149.701893 138.901562 C 149.701893 148.596937 139.002403 156.400531 125.901271 156.400531 C 112.800139 156.400531 102.100649 148.596937 102.100649 138.901562 Z M 149.701893 138.901562 " stroke="#000000" stroke-width="2" stroke-opacity="1" stroke-miterlimit="10"/></g><g clip-path="url(#4529a892d5)"><path stroke-linecap="butt" transform="matrix(0.561139, 0, 0, 0.56164, -42.175517, -47.899425)" fill="none" stroke-linejoin="miter" d="M 136.301426 129.498301 C 136.301426 121.903359 139.002403 115.796803 142.399509 115.796803 C 145.796614 115.796803 148.497592 121.903359 148.497592 129.498301 " stroke="#000000" stroke-width="2" stroke-opacity="1" stroke-miterlimit="10"/></g><path stroke-linecap="butt" transform="matrix(0.561139, 0, 0, 0.56164, -42.175517, -47.899425)" fill="none" stroke-linejoin="miter" d="M 105.998967 129.498301 C 105.998967 121.903359 108.699944 115.796803 112.09705 115.796803 C 115.501116 115.796803 118.202094 121.903359 118.202094 129.498301 " stroke="#000000" stroke-width="2" stroke-opacity="1" stroke-miterlimit="10"/></svg>