<svg xmlns="http://www.w3.org/2000/svg" xmlns:xlink="http://www.w3.org/1999/xlink" width="1920" zoomAndPan="magnify" viewBox="0 0 1440 809.999993" height="1080" preserveAspectRatio="xMidYMid meet" version="1.0"><path fill="#ffcb4a" d="M 863.6875 96.730469 C 728.328125 40.144531 603.503906 94.515625 573.957031 107.382812 C 554.46875 115.859375 376.050781 205.113281 335.96875 407.042969 C 310.355469 536.445312 364.367188 683.046875 478.21875 749.636719 C 524.121094 776.480469 576.742188 789.730469 629.308594 797.671875 C 698.417969 808.09375 769.574219 809.71875 837.769531 794.445312 C 878.308594 785.375 958.433594 762.808594 1018.558594 694.691406 C 1129.371094 569.148438 1081.542969 385.414062 1072 352.347656 C 1061.996094 317.199219 1017.488281 161.109375 863.6875 96.730469 Z M 863.6875 96.730469 " fill-opacity="1" fill-rule="nonzero"/><path fill="#000000" d="M 1040.964844 241.617188 C 1041.554688 243.351562 1041.421875 242.742188 1040.964844 241.617188 Z M 1040.964844 241.617188 " fill-opacity="1" fill-rule="nonzero"/><path fill="#000000" d="M 1074.785156 365.921875 C 1074.785156 365.921875 1074.785156 365.75 1074.785156 365.671875 L 1074.785156 366.015625 C 1074.773438 365.984375 1074.773438 365.953125 1074.785156 365.921875 Z M 1074.785156 365.921875 " fill-opacity="1" fill-rule="nonzero"/><path fill="#000000" d="M 1095.761719 352.15625 C 1092.679688 331.84375 1088.332031 311.800781 1082.726562 292.035156 C 1077.273438 272.75 1070.695312 253.855469 1062.988281 235.355469 C 1050.257812 204.464844 1034.160156 175.4375 1014.703125 148.277344 C 1002.605469 131.4375 989.15625 115.757812 974.347656 101.242188 C 959.542969 86.726562 943.601562 73.589844 926.523438 61.832031 C 907.671875 49.136719 887.742188 38.445312 866.742188 29.757812 C 853.90625 24.503906 840.796875 20.042969 827.421875 16.371094 C 814.042969 12.699219 800.496094 9.84375 786.773438 7.804688 C 773.054688 5.765625 759.261719 4.5625 745.394531 4.1875 C 731.527344 3.8125 717.6875 4.273438 703.878906 5.570312 C 684.527344 7.335938 665.390625 10.441406 646.472656 14.886719 C 627.554688 19.332031 609.039062 25.070312 590.925781 32.105469 C 576.921875 37.371094 563.339844 43.554688 550.175781 50.664062 C 530.316406 61.675781 511.398438 74.109375 493.410156 87.96875 C 466.445312 108.398438 441.867188 131.382812 419.679688 156.925781 C 406.410156 172.1875 394.28125 188.304688 383.296875 205.289062 C 372.308594 222.269531 362.578125 239.941406 354.101562 258.300781 C 334.898438 300.4375 322.339844 345.742188 319.09375 391.941406 C 317.554688 414.664062 318.175781 437.324219 320.953125 459.929688 C 323.726562 482.535156 328.613281 504.671875 335.605469 526.34375 C 339.046875 537.199219 343.03125 547.851562 347.554688 558.300781 C 352.078125 568.753906 357.117188 578.949219 362.671875 588.890625 C 368.226562 598.828125 374.269531 608.464844 380.800781 617.789062 C 387.332031 627.117188 394.320312 636.089844 401.757812 644.710938 C 434.378906 682.109375 475.8125 709.238281 522.003906 726.804688 C 548.476562 736.605469 575.617188 743.9375 603.425781 748.796875 C 633.070312 754.285156 662.933594 757.976562 693.019531 759.871094 C 747.472656 763.210938 802.460938 759.429688 855.40625 745.875 C 894.648438 735.816406 932.933594 720.3125 966.851562 698.035156 C 1008.746094 670.503906 1043.769531 632.949219 1066.484375 588.125 C 1086.503906 548.625 1097.019531 505.269531 1100.53125 461.261719 C 1103.15625 424.707031 1101.566406 388.339844 1095.761719 352.15625 Z M 1077.707031 460.84375 C 1077.324219 465.730469 1076.847656 470.617188 1076.273438 475.503906 L 1075.816406 479.324219 C 1075.816406 479.800781 1075.683594 480.277344 1075.625 480.753906 C 1075.625 480.867188 1075.625 480.925781 1075.625 481.058594 C 1075.261719 483.617188 1074.882812 486.195312 1074.460938 488.695312 C 1072.792969 498.953125 1070.675781 509.136719 1068.105469 519.242188 C 1065.453125 529.589844 1062.269531 539.773438 1058.5625 549.789062 C 1057.722656 552.0625 1056.863281 554.292969 1055.964844 556.527344 C 1055.527344 557.636719 1055.070312 558.742188 1054.609375 559.832031 C 1054.609375 559.832031 1053.484375 562.484375 1053.292969 562.90625 C 1051.097656 567.867188 1048.769531 572.792969 1046.308594 577.625 C 1041.148438 587.71875 1035.378906 597.449219 1028.996094 606.816406 C 1027.433594 609.09375 1025.839844 611.347656 1024.226562 613.574219 C 1023.347656 614.777344 1022.46875 615.960938 1021.574219 617.144531 L 1020.542969 618.5 L 1019.605469 619.703125 C 1015.878906 624.398438 1011.996094 628.96875 1007.964844 633.410156 C 991.636719 651.515625 973.1875 667.105469 952.613281 680.183594 C 943.148438 686.230469 933.394531 691.773438 923.355469 696.8125 C 918.695312 699.160156 913.980469 701.375 909.230469 703.511719 L 905.621094 705.078125 L 904.152344 705.726562 C 901.746094 706.71875 899.324219 707.636719 896.878906 708.667969 C 877.9375 715.992188 858.574219 721.949219 838.792969 726.546875 C 819.011719 731.140625 799.003906 734.328125 778.773438 736.101562 C 721.054688 741.332031 662.5 736.847656 606.269531 726.210938 C 554.222656 716.34375 504.328125 700.265625 461.386719 668.9375 L 458.484375 666.78125 L 456.824219 665.539062 C 454.667969 663.839844 452.507812 662.121094 450.390625 660.367188 C 446.304688 656.941406 442.316406 653.421875 438.425781 649.808594 C 430.386719 642.296875 422.808594 634.351562 415.691406 625.964844 C 414.144531 624.148438 412.601562 622.296875 411.09375 620.425781 L 408.496094 617.066406 L 407.636719 615.960938 L 406.816406 614.890625 C 403.609375 610.652344 400.5 606.300781 397.503906 601.890625 C 391.390625 592.882812 385.761719 583.585938 380.609375 573.996094 C 378.066406 569.289062 375.640625 564.503906 373.339844 559.640625 C 372.128906 557.09375 370.964844 554.550781 369.847656 552.003906 C 369.351562 550.894531 368.855469 549.789062 368.375 548.664062 C 368.089844 548.03125 367.824219 547.402344 367.554688 546.753906 L 367.554688 546.582031 C 367.554688 546.46875 367.554688 546.332031 367.363281 546.125 C 363.242188 535.96875 359.480469 525.65625 356.277344 515.175781 C 353.070312 504.695312 350.339844 493.984375 348.125 483.199219 C 347.019531 477.890625 346.066406 472.566406 345.207031 467.199219 C 345.015625 465.996094 344.84375 464.792969 344.652344 463.574219 C 344.652344 463.230469 344.347656 461.414062 344.269531 460.84375 C 343.925781 458.265625 343.621094 455.667969 343.335938 453.089844 C 340.957031 431.136719 340.683594 409.15625 342.515625 387.148438 C 342.722656 384.554688 342.992188 381.9375 343.257812 379.339844 C 343.410156 377.949219 343.5625 376.574219 343.734375 375.179688 C 343.734375 374.570312 344.15625 372.085938 344.175781 371.859375 C 344.917969 366.742188 345.722656 361.644531 346.695312 356.585938 C 348.832031 345.28125 351.472656 334.09375 354.617188 323.023438 C 357.65625 312.34375 361.125 301.816406 365.015625 291.445312 C 365.914062 289.019531 366.925781 286.632812 367.804688 284.226562 L 369.351562 280.410156 L 369.921875 278.996094 L 370.054688 278.691406 L 370.054688 278.441406 C 372.179688 273.519531 374.382812 268.636719 376.660156 263.800781 C 385.277344 245.726562 395.171875 228.378906 406.339844 211.757812 C 409.070312 207.691406 411.875 203.679688 414.71875 199.730469 C 416.054688 197.820312 417.390625 196.082031 418.746094 194.269531 C 419.355469 193.429688 419.988281 192.589844 420.65625 191.769531 L 422.164062 189.859375 C 427.699219 182.816406 433.386719 175.882812 439.339844 169.164062 C 450.609375 156.429688 462.53125 144.339844 475.109375 132.890625 C 480.832031 127.660156 486.75 122.542969 492.742188 117.617188 C 495.550781 115.308594 498.375 113.015625 501.21875 110.78125 L 503.128906 109.292969 L 503.566406 108.929688 C 504.882812 107.804688 506.332031 106.8125 507.726562 105.761719 C 517.703125 98.238281 527.972656 91.101562 538.53125 84.339844 C 551.117188 76.050781 564.207031 68.640625 577.792969 62.117188 C 580.253906 60.972656 582.773438 59.921875 585.273438 58.855469 L 586.058594 58.511719 L 586.324219 58.394531 L 590.140625 56.851562 C 592.902344 55.71875 595.683594 54.617188 598.484375 53.546875 C 613.757812 47.691406 629.320312 42.734375 645.167969 38.675781 C 655.066406 36.128906 665.050781 33.976562 675.113281 32.222656 C 677.671875 31.761719 680.230469 31.34375 682.75 30.941406 L 686.394531 30.390625 L 688.515625 30.101562 L 689.066406 30.101562 C 694.71875 29.378906 700.371094 28.742188 706.035156 28.195312 C 718.433594 27.136719 730.851562 26.730469 743.292969 26.972656 C 749.652344 27.097656 755.984375 27.40625 762.28125 27.886719 C 765.414062 28.136719 768.542969 28.402344 771.65625 28.726562 C 773.351562 28.917969 775.03125 29.089844 776.710938 29.300781 L 778.621094 29.53125 L 780.261719 29.757812 C 807.921875 33.644531 834.640625 40.957031 860.425781 51.695312 L 860.921875 51.90625 L 862.964844 52.800781 L 866.496094 54.367188 C 869.320312 55.640625 872.125 56.957031 874.914062 58.320312 C 879.886719 60.761719 884.8125 63.308594 889.683594 65.957031 C 899.21875 71.207031 908.457031 76.933594 917.398438 83.136719 C 919.460938 84.570312 921.519531 86.039062 923.5625 87.53125 L 926.371094 89.609375 L 927.972656 90.8125 L 929.269531 91.804688 C 933.085938 94.796875 936.867188 97.878906 940.609375 101.046875 C 948.242188 107.539062 955.515625 114.410156 962.519531 121.53125 C 969.121094 128.289062 975.484375 135.289062 981.605469 142.53125 C 983.113281 144.34375 984.621094 146.199219 986.109375 148.050781 L 988.019531 150.472656 L 989.105469 151.867188 C 991.816406 155.4375 994.488281 159.027344 997.085938 162.671875 C 1006.988281 176.664062 1015.972656 191.226562 1024.035156 206.355469 C 1027.660156 213.136719 1031.117188 220.011719 1034.398438 226.972656 C 1035.914062 230.179688 1037.382812 233.40625 1038.808594 236.652344 C 1039.476562 238.160156 1040.144531 239.6875 1040.714844 241.195312 L 1040.886719 241.617188 L 1040.886719 241.445312 C 1041.191406 242.359375 1041.632812 243.21875 1041.996094 244.097656 C 1046.398438 254.777344 1050.410156 265.59375 1054.039062 276.554688 C 1058.828125 291.140625 1063.046875 305.933594 1066.5 320.882812 C 1069.351562 333.230469 1071.730469 345.683594 1073.640625 358.246094 C 1073.90625 360 1074.175781 361.757812 1074.421875 363.515625 C 1074.539062 364.238281 1074.632812 364.945312 1074.726562 365.671875 C 1074.71875 365.507812 1074.71875 365.339844 1074.726562 365.175781 C 1074.726562 365.421875 1074.726562 365.671875 1074.726562 365.921875 L 1074.726562 366.035156 C 1074.898438 367.292969 1074.726562 366.683594 1074.726562 366.035156 L 1074.84375 367.027344 C 1075.351562 370.949219 1075.816406 374.867188 1076.234375 378.789062 C 1077.140625 387.300781 1077.8125 395.84375 1078.257812 404.410156 C 1079.296875 423.230469 1079.109375 442.042969 1077.707031 460.84375 Z M 1077.707031 460.84375 " fill-opacity="1" fill-rule="nonzero"/><path fill="#000000" d="M 569.871094 331.574219 C 598.636719 331.574219 621.960938 302.785156 621.960938 267.273438 C 621.960938 231.765625 598.636719 202.992188 569.871094 202.992188 C 541.109375 202.992188 517.785156 231.746094 517.785156 267.273438 C 517.785156 302.804688 541.109375 331.574219 569.871094 331.574219 Z M 569.871094 331.574219 " fill-opacity="1" fill-rule="nonzero"/><path fill="#000000" d="M 850.253906 331.574219 C 879.015625 331.574219 902.339844 302.785156 902.339844 267.273438 C 902.339844 231.765625 879.015625 202.992188 850.253906 202.992188 C 821.488281 202.992188 798.164062 231.746094 798.164062 267.273438 C 798.164062 302.804688 821.488281 331.574219 850.253906 331.574219 Z M 850.253906 331.574219 " fill-opacity="1" fill-rule="nonzero"/><path fill="#000000" d="M 922.894531 473.097656 C 918.351562 470.675781 911.445312 471.191406 908.160156 475.675781 L 907.96875 475.675781 C 907.261719 475.925781 906.539062 476.152344 905.8125 476.363281 C 904.152344 476.859375 902.453125 477.28125 900.773438 477.660156 C 896.367188 478.65625 891.898438 479.398438 887.414062 480.046875 L 885.734375 480.277344 L 882.125 480.734375 C 879.148438 481.097656 876.152344 481.421875 873.175781 481.746094 C 858.765625 483.21875 844.296875 484.210938 829.828125 485.011719 C 812.480469 485.984375 795.09375 486.652344 777.722656 487.132812 C 758.828125 487.664062 739.925781 487.984375 721.019531 488.085938 C 702.109375 488.1875 683.023438 488.125 663.757812 487.894531 C 645.914062 487.644531 628.066406 487.226562 610.316406 486.539062 C 595.046875 485.964844 579.777344 485.203125 564.644531 484.039062 C 558.394531 483.578125 552.167969 483.019531 545.957031 482.359375 C 543.359375 482.070312 540.765625 481.785156 538.1875 481.441406 L 537.0625 481.289062 L 533.742188 480.773438 C 530.023438 480.214844 526.347656 479.460938 522.710938 478.519531 C 521.84375 478.277344 521.003906 478.011719 520.191406 477.71875 C 519.445312 476.875 518.585938 476.167969 517.613281 475.601562 C 516.273438 474.835938 514.839844 474.351562 513.308594 474.152344 C 511.777344 473.957031 510.265625 474.054688 508.777344 474.453125 C 503.414062 476.191406 498.394531 482.585938 500.777344 488.542969 C 501.535156 490.640625 502.667969 492.511719 504.179688 494.148438 C 505.695312 495.785156 507.46875 497.058594 509.5 497.976562 C 513.082031 499.570312 516.789062 500.769531 520.628906 501.5625 C 531.359375 503.679688 542.171875 505.15625 553.078125 505.992188 C 567.488281 507.328125 581.953125 508.1875 596.421875 508.855469 C 613.867188 509.679688 631.351562 510.210938 648.8125 510.554688 C 668.015625 510.9375 687.210938 511.101562 706.398438 511.050781 C 725.585938 511 744.894531 510.777344 764.324219 510.382812 C 782.476562 509.964844 800.589844 509.371094 818.777344 508.476562 C 834.179688 507.730469 849.585938 506.796875 864.949219 505.421875 C 877.242188 504.3125 889.570312 503.015625 901.730469 500.761719 C 908.90625 499.445312 916.902344 497.898438 922.722656 493.335938 C 924.507812 492.132812 925.910156 490.578125 926.921875 488.675781 C 927.65625 487.328125 928.121094 485.894531 928.316406 484.375 C 928.515625 482.851562 928.433594 481.347656 928.066406 479.855469 C 927.664062 478.445312 927.015625 477.152344 926.125 475.988281 C 925.230469 474.820312 924.152344 473.855469 922.894531 473.097656 Z M 521.871094 480.085938 C 521.46875 479.417969 521.125 478.328125 521.871094 480.085938 Z M 521.660156 479.914062 L 521.945312 480.257812 C 522.175781 480.792969 522.460938 481.5 522.863281 482.511719 C 522.519531 481.625 522.117188 480.765625 521.660156 479.933594 Z M 521.660156 479.914062 " fill-opacity="1" fill-rule="nonzero"/></svg>